<svg width="16" height="16" viewBox="0 0 16 16" fill="none" xmlns="http://www.w3.org/2000/svg">
<path d="M7.999 0.166519C3.582 0.166519 0 3.76252 0 8.19852C0 11.7465 2.292 14.7565 5.472 15.8195C5.872 15.8935 6.018 15.6455 6.018 15.4325C6.018 15.2415 6.011 14.7365 6.007 14.0665C3.782 14.5515 3.312 12.9895 3.312 12.9895C2.949 12.0615 2.424 11.8145 2.424 11.8145C1.697 11.3165 2.478 11.3265 2.478 11.3265C3.281 11.3835 3.703 12.1545 3.703 12.1545C4.417 13.3815 5.576 13.0275 6.032 12.8215C6.104 12.3025 6.311 11.9485 6.54 11.7475C4.764 11.5445 2.896 10.8555 2.896 7.77852C2.896 6.90152 3.208 6.18452 3.72 5.62252C3.637 5.41952 3.363 4.60252 3.798 3.49752C3.798 3.49752 4.47 3.28152 5.998 4.32052C6.636 4.14252 7.32 4.05352 8.001 4.05052C8.68 4.05452 9.365 4.14252 10.004 4.32152C11.531 3.28252 12.202 3.49852 12.202 3.49852C12.638 4.60452 12.364 5.42052 12.282 5.62352C12.795 6.18552 13.104 6.90252 13.104 7.77952C13.104 10.8645 11.234 11.5435 9.452 11.7425C9.739 11.9905 9.995 12.4805 9.995 13.2295C9.995 14.3035 9.985 15.1695 9.985 15.4325C9.985 15.6475 10.129 15.8975 10.535 15.8185C13.71 14.7545 16 11.7455 16 8.19852C16 3.76252 12.418 0.166519 7.999 0.166519Z" fill="#C4C4CC"/>
</svg>
